HIERARCHY
ROOT hip
{
  OFFSET 0 0 0
  CHANNELS 6 Xposition Yposition Zposition Zrotation Yrotation Xrotation
  JOINT abdomen
  {
    OFFSET 0 20.6881 -0.73152
    CHANNELS 3 Zrotation Xrotation Yrotation
    JOINT chest
    {
      OFFSET 0 11.7043 -0.48768
      CHANNELS 3 Zrotation Xrotation Yrotation
      JOINT neck
      {
        OFFSET 0 22.1894 -2.19456
        CHANNELS 3 Zrotation Xrotation Yrotation
        JOINT head
        {
          OFFSET -0.24384 7.07133 1.2192
          CHANNELS 3 Zrotation Xrotation Yrotation
          JOINT leftEye
          {
            OFFSET 4.14528 8.04674 8.04672
            CHANNELS 3 Zrotation Xrotation Yrotation
            End Site
            {
              OFFSET 1 0 0
            }
          }
          JOINT rightEye
          {
            OFFSET -3.6576 8.04674 8.04672
            CHANNELS 3 Zrotation Xrotation Yrotation
            End Site
            {
              OFFSET 1 0 0
            }
          }
        }
      }
      JOINT rCollar
      {
        OFFSET -2.68224 19.2634 -4.8768
        CHANNELS 3 Zrotation Xrotation Yrotation
        JOINT rShldr
        {
          OFFSET -8.77824 -1.95073 1.46304
          CHANNELS 3 Zrotation Xrotation Yrotation
          JOINT rForeArm
          {
            OFFSET -28.1742 -1.7115 0.48768
            CHANNELS 3 Zrotation Xrotation Yrotation
            JOINT rHand
            {
              OFFSET -22.5879 0.773209 7.07136
              CHANNELS 3 Zrotation Xrotation Yrotation
              JOINT rThumb1
              {
                OFFSET -1.2192 -0.487915 3.41376
                CHANNELS 3 Zrotation Xrotation Yrotation
                JOINT rThumb2
                {
                  OFFSET -3.37035 -0.52449 3.41376
                  CHANNELS 3 Zrotation Xrotation Yrotation
                  End Site
                  {
                    OFFSET -1.78271 -1.18214 1.43049
                  }
                }
              }
              JOINT rIndex1
              {
                OFFSET -7.75947 0.938293 5.60832
                CHANNELS 3 Zrotation Xrotation Yrotation
                JOINT rIndex2
                {
                  OFFSET -2.54057 -0.884171 1.56538
                  CHANNELS 3 Zrotation Xrotation Yrotation
                  End Site
                  {
                    OFFSET -1.62519 -0.234802 1.16502
                  }
                }
              }
              JOINT rMid1
              {
                OFFSET -8.24714 1.18213 3.41376
                CHANNELS 3 Zrotation Xrotation Yrotation
                JOINT rMid2
                {
                  OFFSET -3.10165 -0.590103 1.0647
                  CHANNELS 3 Zrotation Xrotation Yrotation
                  End Site
                  {
                    OFFSET -2.48547 -0.328903 0.83742
                  }
                }
              }
              JOINT rRing1
              {
                OFFSET -8.82822 0.546677 1.51678
                CHANNELS 3 Zrotation Xrotation Yrotation
                JOINT rRing2
                {
                  OFFSET -2.60934 -0.819778 -0.0198488
                  CHANNELS 3 Zrotation Xrotation Yrotation
                  End Site
                  {
                    OFFSET -2.33842 -0.294052 0.168128
                  }
                }
              }
              JOINT rPinky1
              {
                OFFSET -8.27202 -0.0477905 -0.4584
                CHANNELS 3 Zrotation Xrotation Yrotation
                JOINT rPinky2
                {
                  OFFSET -1.82734 -0.647385 -0.700984
                  CHANNELS 3 Zrotation Xrotation Yrotation
                  End Site
                  {
                    OFFSET -1.69225 -0.51767 -0.607171
                  }
                }
              }
            }
          }
        }
      }
      JOINT lCollar
      {
        OFFSET 2.68224 19.2634 -4.8768
        CHANNELS 3 Zrotation Xrotation Yrotation
        JOINT lShldr
        {
          OFFSET 8.77824 -1.95073 1.46304
          CHANNELS 3 Zrotation Xrotation Yrotation
          JOINT lForeArm
          {
            OFFSET 28.1742 -1.7115 0.48768
            CHANNELS 3 Zrotation Xrotation Yrotation
            JOINT lHand
            {
              OFFSET 22.5879 0.773209 7.07136
              CHANNELS 3 Zrotation Xrotation Yrotation
              JOINT lThumb1
              {
                OFFSET 1.2192 -0.487915 3.41376
                CHANNELS 3 Zrotation Xrotation Yrotation
                JOINT lThumb2
                {
                  OFFSET 3.37035 -0.52449 3.41376
                  CHANNELS 3 Zrotation Xrotation Yrotation
                  End Site
                  {
                    OFFSET 1.78271 -1.18214 1.43049
                  }
                }
              }
              JOINT lIndex1
              {
                OFFSET 7.75947 0.938293 5.60832
                CHANNELS 3 Zrotation Xrotation Yrotation
                JOINT lIndex2
                {
                  OFFSET 2.54057 -0.884171 1.56538
                  CHANNELS 3 Zrotation Xrotation Yrotation
                  End Site
                  {
                    OFFSET 1.62519 -0.234802 1.16502
                  }
                }
              }
              JOINT lMid1
              {
                OFFSET 8.24714 1.18213 3.41376
                CHANNELS 3 Zrotation Xrotation Yrotation
                JOINT lMid2
                {
                  OFFSET 3.10165 -0.590103 1.0647
                  CHANNELS 3 Zrotation Xrotation Yrotation
                  End Site
                  {
                    OFFSET 2.48547 -0.328903 0.83742
                  }
                }
              }
              JOINT lRing1
              {
                OFFSET 8.82822 0.546677 1.51678
                CHANNELS 3 Zrotation Xrotation Yrotation
                JOINT lRing2
                {
                  OFFSET 2.60934 -0.819778 -0.0198488
                  CHANNELS 3 Zrotation Xrotation Yrotation
                  End Site
                  {
                    OFFSET 2.33842 -0.294052 0.168128
                  }
                }
              }
              JOINT lPinky1
              {
                OFFSET 8.27202 -0.0477905 -0.4584
                CHANNELS 3 Zrotation Xrotation Yrotation
                JOINT lPinky2
                {
                  OFFSET 1.82734 -0.647385 -0.700984
                  CHANNELS 3 Zrotation Xrotation Yrotation
                  End Site
                  {
                    OFFSET 1.69225 -0.51767 -0.607171
                  }
                }
              }
            }
          }
        }
      }
    }
  }
  JOINT rButtock
  {
    OFFSET -8.77824 4.35084 1.2192
    CHANNELS 3 Zrotation Xrotation Yrotation
    JOINT rThigh
    {
      OFFSET 0 -1.70687 -2.19456
      CHANNELS 3 Zrotation Xrotation Yrotation
      JOINT rShin
      {
        OFFSET 0 -36.8199 0.73152
        CHANNELS 3 Zrotation Xrotation Yrotation
        JOINT rFoot
        {
          OFFSET 0.73152 -45.1104 -5.12064
          CHANNELS 3 Zrotation Xrotation Yrotation
          End Site
          {
            OFFSET -1.1221 -3.69964 12.103
          }
        }
      }
    }
  }
  JOINT lButtock
  {
    OFFSET 8.77824 4.35084 1.2192
    CHANNELS 3 Zrotation Xrotation Yrotation
    JOINT lThigh
    {
      OFFSET 0 -1.70687 -2.19456
      CHANNELS 3 Zrotation Xrotation Yrotation
      JOINT lShin
      {
        OFFSET 0 -36.8199 0.73152
        CHANNELS 3 Zrotation Xrotation Yrotation
        JOINT lFoot
        {
          OFFSET -0.73152 -45.1104 -5.12064
          CHANNELS 3 Zrotation Xrotation Yrotation
          End Site
          {
            OFFSET 1.1221 -3.69964 12.103
          }
        }
      }
    }
  }
}
MOTION
Frames:	4
Frame Time:	0.00833333
62.495 84.6888 -5.7076 0.0 0.0 0.0 -0.509402 -0.00239385 -0.0145495 -0.140515 -0.00366761 -0.0243453 7.04464e-15 1.59028e-15 8.69683e-17 2.11581e-14 9.54166e-15 2.59352e-16 -0.0 0.0 0.0 -0.0 0.0 0.0 3.67633e-15 3.10601e-18 1.49089e-16 7.59312e-14 -9.31803e-17 2.38542e-15 1.28007e-12 -3.82263e-13 9.54166e-15 1.46625e-11 3.97023e-13 1.87653e-13 3.45807e-11 3.25825e-14 4.6118e-13 5.97054e-11 5.725e-14 7.84007e-13 3.45838e-11 3.06128e-14 4.48458e-13 7.73091 5.47488 0.417314 3.45795e-11 3.23025e-14 4.51639e-13 2.90554 0.965183 0.102902 3.45877e-11 3.27995e-14 4.54819e-13 10.2786 0.731801 0.0259123 3.45732e-11 3.61788e-14 4.64361e-13 2.22167 -0.733487 -0.20892 3.48015e-15 3.49426e-18 -4.96962e-17 7.36025e-14 9.93923e-17 1.98785e-16 1.28087e-12 3.85443e-13 9.54166e-15 1.4665e-11 -3.74212e-13 2.03556e-13 3.4594e-11 2.26789e-14 4.51639e-13 5.97622e-11 4.13472e-14 7.90368e-13 3.45909e-11 2.3059e-14 4.67542e-13 -7.73091 5.47488 -0.417314 3.45951e-11 2.20651e-14 4.51639e-13 -2.90554 0.965183 -0.102902 3.45864e-11 2.28602e-14 4.55614e-13 -10.2786 0.731801 -0.0259123 3.45999e-11 2.34566e-14 4.42097e-13 -2.22167 -0.733487 0.20892 -2.03217e-16 0.0 -3.88251e-19 0.123762 -2.41906 -0.0242101 -0.00796917 -1.17027 -0.0686485 -0.509332 3.58918 0.131538 2.03217e-16 0.0 3.88251e-19 -0.898674 -4.37902 0.073908 0.00246122 2.37988 0.0145049 0.515471 1.99908 -0.0997374
61.3564 82.9921 -9.74488 152.484 -86.8584 -143.047 -0.544572 -1.92142 -0.0663467 0.391243 1.67382 -0.0631068 -0.830816 -0.246951 0.0246159 0.270501 -2.03715 0.280944 -0.0 0.0 0.0 -0.0 0.0 0.0 -2.1991e-14 -3.92846e-13 2.63619e-14 21.7 3.54165 0.543028 -5.25954 -2.64076 7.92486 0.0414471 4.5206 0.628217 6.92879e-11 -3.10333e-11 -1.00026e-09 1.06621e-10 -5.73609e-11 -1.7301e-09 6.92934e-11 -3.10348e-11 -1.00027e-09 7.73091 5.47488 0.417314 6.9287e-11 -3.10342e-11 -1.00026e-09 2.90554 0.965183 0.102902 6.92948e-11 -3.10338e-11 -1.00026e-09 10.2786 0.731801 0.0259123 6.92811e-11 -3.10316e-11 -1.00025e-09 2.22167 -0.733487 -0.20892 -2.21705e-14 -3.92847e-13 2.61324e-14 -22.1391 9.72641 -1.79574 4.71643 -2.25209 -7.24447 -0.0325644 -4.00466 0.557863 8.37135e-11 -4.87586e-10 1.21141e-09 1.37264e-10 -8.42803e-10 2.09382e-09 8.37096e-11 -4.87586e-10 1.21142e-09 -7.73091 5.47488 -0.417314 8.37128e-11 -4.87588e-10 1.21141e-09 -2.90554 0.965183 -0.102902 8.37046e-11 -4.87587e-10 1.21142e-09 -10.2786 0.731801 -0.0259123 8.37199e-11 -4.87587e-10 1.2114e-09 -2.22167 -0.733487 0.20892 -2.03217e-16 0.0 -3.88251e-19 0.103916 -8.50077 0.850172 -0.00783676 7.37526 0.0472339 -0.287993 2.23199 2.73801 2.03217e-16 0.0 3.88251e-19 -0.980898 -8.99495 -0.590566 -0.00925977 10.2777 -0.120289 0.581145 -2.77123 0.504057
61.3159 82.9831 -9.86833 150.021 -87.0486 -140.605 -0.593627 -3.95296 -0.123033 0.958317 3.44974 -0.104809 -1.70746 -0.503419 0.052477 0.576576 -4.18744 0.581742 -0.0 0.0 0.0 -0.0 0.0 0.0 -5.25721e-14 -8.37264e-13 5.65325e-14 44.5827 7.26427 1.12379 -10.0148 -5.24856 16.3299 -0.0239353 9.31361 1.3077 1.12843e-10 -6.90914e-11 -2.07578e-09 1.67813e-10 -1.27133e-10 -3.59043e-09 1.12851e-10 -6.90923e-11 -2.0758e-09 7.73091 5.47488 0.417314 1.12842e-10 -6.90929e-11 -2.07579e-09 2.90554 0.965183 0.102902 1.1285e-10 -6.90926e-11 -2.07579e-09 10.2786 0.731801 0.0259123 1.12837e-10 -6.90917e-11 -2.07578e-09 2.22167 -0.733487 -0.20892 -5.27344e-14 -8.37266e-13 5.62685e-14 -44.8423 19.9745 -3.87682 9.08848 -4.51292 -14.9387 0.0186032 -8.23643 1.15667 1.54098e-10 -1.01255e-09 2.51872e-09 2.50947e-10 -1.75015e-09 4.35354e-09 1.54093e-10 -1.01255e-09 2.51873e-09 -7.73091 5.47488 -0.417314 1.54095e-10 -1.01255e-09 2.51872e-09 -2.90554 0.965183 -0.102902 1.54088e-10 -1.01255e-09 2.51872e-09 -10.2786 0.731801 -0.0259123 1.54105e-10 -1.01255e-09 2.51872e-09 -2.22167 -0.733487 0.20892 -2.03217e-16 0.0 -3.88251e-19 0.287843 -14.9151 1.82226 -0.0464207 16.3978 0.175991 0.0789982 0.80749 5.48835 2.03217e-16 0.0 3.88251e-19 -1.19415 -13.8348 -1.34017 0.0204309 18.5788 -0.272664 0.764374 -7.83113 1.16715
61.2764 82.9716 -10.0171 149.06 -87.2138 -139.64 -0.625369 -5.75944 -0.170691 1.46159 5.02877 -0.141092 -2.49181 -0.740852 0.0738531 0.871726 -6.11086 0.847113 -0.0 0.0 0.0 -0.0 0.0 0.0 -7.33257e-14 -1.17854e-12 7.87874e-14 64.8956 10.6211 1.65432 -13.6421 -7.31735 23.9563 -0.180248 13.5552 1.93264 1.38702e-10 -9.31651e-11 -3.00169e-09 2.00453e-10 -1.72197e-10 -5.19186e-09 1.38713e-10 -9.31656e-11 -3.00171e-09 7.73091 5.47488 0.417314 1.38702e-10 -9.31673e-11 -3.00169e-09 2.90554 0.965183 0.102902 1.38709e-10 -9.3167e-11 -3.00169e-09 10.2786 0.731801 0.0259123 1.38697e-10 -9.31672e-11 -3.00169e-09 2.22167 -0.733487 -0.20892 -7.34719e-14 -1.17855e-12 7.84967e-14 -64.3678 29.056 -6.07693 12.4776 -6.32515 -21.8564 0.140676 -12.0094 1.70687 1.81953e-10 -1.4628e-09 3.63333e-09 2.92268e-10 -2.52849e-09 6.27987e-09 1.81947e-10 -1.46281e-09 3.63334e-09 -7.73091 5.47488 -0.417314 1.81948e-10 -1.46281e-09 3.63333e-09 -2.90554 0.965183 -0.102902 1.81941e-10 -1.46281e-09 3.63333e-09 -10.2786 0.731801 -0.0259123 1.8196e-10 -1.46281e-09 3.63333e-09 -2.22167 -0.733487 0.20892 -2.03217e-16 0.0 -3.88251e-19 0.654469 -20.6452 2.74743 -0.118588 24.466 0.305203 0.523984 -0.470194 7.94551 2.03217e-16 0.0 3.88251e-19 -1.48174 -18.2179 -1.99745 0.089634 26.0727 -0.427573 1.01945 -12.3066 1.74998
